<svg class="main-svg" xmlns="http://www.w3.org/2000/svg" xmlns:xlink="http://www.w3.org/1999/xlink" width="10000" height="7500" style="" viewBox="0 0 1000 750"><rect x="0" y="0" width="1000" height="750" style="fill: rgb(255, 255, 255); fill-opacity: 1;"/><defs id="defs-3f6ac8"><g class="clips"><clipPath id="clip3f6ac8xyplot" class="plotclip"><rect width="840" height="570"/></clipPath><clipPath class="axesclip" id="clip3f6ac8x"><rect x="80" y="0" width="840" height="750"/></clipPath><clipPath class="axesclip" id="clip3f6ac8y"><rect x="0" y="100" width="1000" height="570"/></clipPath><clipPath class="axesclip" id="clip3f6ac8xy"><rect x="80" y="100" width="840" height="570"/></clipPath></g><g class="gradients"/><g class="patterns"/></defs><g class="bglayer"><rect class="bg" x="80" y="100" width="840" height="570" style="fill: rgb(229, 236, 246); fill-opacity: 1; stroke-width: 0;"/></g><g class="layer-below"><g class="imagelayer"/><g class="shapelayer"/></g><g class="cartesianlayer"><g class="subplot xy"><g class="layer-subplot"><g class="shapelayer"/><g class="imagelayer"/></g><g class="minor-gridlayer"><g class="x"/><g class="y"/></g><g class="gridlayer"><g class="x"><path class="xgrid crisp" transform="translate(195.69,0)" d="M0,100v570" style="stroke: rgb(255, 255, 255); stroke-opacity: 1; stroke-width: 1px;"/><path class="xgrid crisp" transform="translate(347.84,0)" d="M0,100v570" style="stroke: rgb(255, 255, 255); stroke-opacity: 1; stroke-width: 1px;"/><path class="xgrid crisp" transform="translate(652.16,0)" d="M0,100v570" style="stroke: rgb(255, 255, 255); stroke-opacity: 1; stroke-width: 1px;"/><path class="xgrid crisp" transform="translate(804.31,0)" d="M0,100v570" style="stroke: rgb(255, 255, 255); stroke-opacity: 1; stroke-width: 1px;"/></g><g class="y"><path class="ygrid crisp" transform="translate(0,561.03)" d="M80,0h840" style="stroke: rgb(255, 255, 255); stroke-opacity: 1; stroke-width: 1px;"/><path class="ygrid crisp" transform="translate(0,452.07)" d="M80,0h840" style="stroke: rgb(255, 255, 255); stroke-opacity: 1; stroke-width: 1px;"/><path class="ygrid crisp" transform="translate(0,343.1)" d="M80,0h840" style="stroke: rgb(255, 255, 255); stroke-opacity: 1; stroke-width: 1px;"/><path class="ygrid crisp" transform="translate(0,234.14)" d="M80,0h840" style="stroke: rgb(255, 255, 255); stroke-opacity: 1; stroke-width: 1px;"/><path class="ygrid crisp" transform="translate(0,125.17)" d="M80,0h840" style="stroke: rgb(255, 255, 255); stroke-opacity: 1; stroke-width: 1px;"/></g></g><g class="zerolinelayer"><path class="xzl zl crisp" transform="translate(500,0)" d="M0,100v570" style="stroke: rgb(255, 255, 255); stroke-opacity: 1; stroke-width: 2px;"/><path class="yzl zl crisp" transform="translate(0,670)" d="M80,0h840" style="stroke: rgb(255, 255, 255); stroke-opacity: 1; stroke-width: 2px;"/></g><g class="layer-between"><g class="shapelayer"/><g class="imagelayer"/></g><path class="xlines-below"/><path class="ylines-below"/><g class="overlines-below"/><g class="xaxislayer-below"/><g class="yaxislayer-below"/><g class="overaxes-below"/><g class="overplot"><g class="xy" transform="translate(80,100)" clip-path="url(#clip3f6ac8xyplot)"><g class="scatterlayer mlayer"><g class="trace scatter tracefa153a" style="stroke-miterlimit: 2; opacity: 1;"><g class="fills"/><g class="errorbars"/><g class="lines"/><g class="points"><path class="point" transform="translate(456,498.02)" d="M2.5,0A2.5,2.5 0 1,1 0,-2.5A2.5,2.5 0 0,1 2.5,0Z" style="opacity: 1; stroke-width: 0px; fill: rgb(0, 0, 255); fill-opacity: 1;"/><path class="point" transform="translate(250.96,533.48)" d="M2.5,0A2.5,2.5 0 1,1 0,-2.5A2.5,2.5 0 0,1 2.5,0Z" style="opacity: 1; stroke-width: 0px; fill: rgb(0, 0, 255); fill-opacity: 1;"/><path class="point" transform="translate(588.5,539.33)" d="M2.5,0A2.5,2.5 0 1,1 0,-2.5A2.5,2.5 0 0,1 2.5,0Z" style="opacity: 1; stroke-width: 0px; fill: rgb(0, 0, 255); fill-opacity: 1;"/><path class="point" transform="translate(498.27,519.6)" d="M2.5,0A2.5,2.5 0 1,1 0,-2.5A2.5,2.5 0 0,1 2.5,0Z" style="opacity: 1; stroke-width: 0px; fill: rgb(0, 0, 255); fill-opacity: 1;"/><path class="point" transform="translate(513.52,384.55)" d="M2.5,0A2.5,2.5 0 1,1 0,-2.5A2.5,2.5 0 0,1 2.5,0Z" style="opacity: 1; stroke-width: 0px; fill: rgb(0, 0, 255); fill-opacity: 1;"/><path class="point" transform="translate(332.7,217.93)" d="M2.5,0A2.5,2.5 0 1,1 0,-2.5A2.5,2.5 0 0,1 2.5,0Z" style="opacity: 1; stroke-width: 0px; fill: rgb(0, 0, 255); fill-opacity: 1;"/><path class="point" transform="translate(176.56,454.09)" d="M2.5,0A2.5,2.5 0 1,1 0,-2.5A2.5,2.5 0 0,1 2.5,0Z" style="opacity: 1; stroke-width: 0px; fill: rgb(0, 0, 255); fill-opacity: 1;"/><path class="point" transform="translate(610.35,493.21)" d="M2.5,0A2.5,2.5 0 1,1 0,-2.5A2.5,2.5 0 0,1 2.5,0Z" style="opacity: 1; stroke-width: 0px; fill: rgb(0, 0, 255); fill-opacity: 1;"/><path class="point" transform="translate(529.61,506.13)" d="M2.5,0A2.5,2.5 0 1,1 0,-2.5A2.5,2.5 0 0,1 2.5,0Z" style="opacity: 1; stroke-width: 0px; fill: rgb(0, 0, 255); fill-opacity: 1;"/><path class="point" transform="translate(497.85,379.6)" d="M2.5,0A2.5,2.5 0 1,1 0,-2.5A2.5,2.5 0 0,1 2.5,0Z" style="opacity: 1; stroke-width: 0px; fill: rgb(0, 0, 255); fill-opacity: 1;"/><path class="point" transform="translate(408.87,554.07)" d="M2.5,0A2.5,2.5 0 1,1 0,-2.5A2.5,2.5 0 0,1 2.5,0Z" style="opacity: 1; stroke-width: 0px; fill: rgb(0, 0, 255); fill-opacity: 1;"/><path class="point" transform="translate(407.47,547.04)" d="M2.5,0A2.5,2.5 0 1,1 0,-2.5A2.5,2.5 0 0,1 2.5,0Z" style="opacity: 1; stroke-width: 0px; fill: rgb(0, 0, 255); fill-opacity: 1;"/><path class="point" transform="translate(242.23,536.15)" d="M2.5,0A2.5,2.5 0 1,1 0,-2.5A2.5,2.5 0 0,1 2.5,0Z" style="opacity: 1; stroke-width: 0px; fill: rgb(0, 0, 255); fill-opacity: 1;"/><path class="point" transform="translate(491.31,474.3)" d="M2.5,0A2.5,2.5 0 1,1 0,-2.5A2.5,2.5 0 0,1 2.5,0Z" style="opacity: 1; stroke-width: 0px; fill: rgb(0, 0, 255); fill-opacity: 1;"/><path class="point" transform="translate(431.92,542)" d="M2.5,0A2.5,2.5 0 1,1 0,-2.5A2.5,2.5 0 0,1 2.5,0Z" style="opacity: 1; stroke-width: 0px; fill: rgb(0, 0, 255); fill-opacity: 1;"/><path class="point" transform="translate(474.47,358.6)" d="M2.5,0A2.5,2.5 0 1,1 0,-2.5A2.5,2.5 0 0,1 2.5,0Z" style="opacity: 1; stroke-width: 0px; fill: rgb(0, 0, 255); fill-opacity: 1;"/><path class="point" transform="translate(464.7,539.51)" d="M2.5,0A2.5,2.5 0 1,1 0,-2.5A2.5,2.5 0 0,1 2.5,0Z" style="opacity: 1; stroke-width: 0px; fill: rgb(0, 0, 255); fill-opacity: 1;"/><path class="point" transform="translate(445.94,469.37)" d="M2.5,0A2.5,2.5 0 1,1 0,-2.5A2.5,2.5 0 0,1 2.5,0Z" style="opacity: 1; stroke-width: 0px; fill: rgb(0, 0, 255); fill-opacity: 1;"/><path class="point" transform="translate(369.66,530.67)" d="M2.5,0A2.5,2.5 0 1,1 0,-2.5A2.5,2.5 0 0,1 2.5,0Z" style="opacity: 1; stroke-width: 0px; fill: rgb(0, 0, 255); fill-opacity: 1;"/><path class="point" transform="translate(76.08,238.97)" d="M2.5,0A2.5,2.5 0 1,1 0,-2.5A2.5,2.5 0 0,1 2.5,0Z" style="opacity: 1; stroke-width: 0px; fill: rgb(0, 0, 255); fill-opacity: 1;"/><path class="point" transform="translate(385.94,369.68)" d="M2.5,0A2.5,2.5 0 1,1 0,-2.5A2.5,2.5 0 0,1 2.5,0Z" style="opacity: 1; stroke-width: 0px; fill: rgb(0, 0, 255); fill-opacity: 1;"/><path class="point" transform="translate(435.75,490.97)" d="M2.5,0A2.5,2.5 0 1,1 0,-2.5A2.5,2.5 0 0,1 2.5,0Z" style="opacity: 1; stroke-width: 0px; fill: rgb(0, 0, 255); fill-opacity: 1;"/><path class="point" transform="translate(519.47,541.31)" d="M2.5,0A2.5,2.5 0 1,1 0,-2.5A2.5,2.5 0 0,1 2.5,0Z" style="opacity: 1; stroke-width: 0px; fill: rgb(0, 0, 255); fill-opacity: 1;"/><path class="point" transform="translate(438.89,527.83)" d="M2.5,0A2.5,2.5 0 1,1 0,-2.5A2.5,2.5 0 0,1 2.5,0Z" style="opacity: 1; stroke-width: 0px; fill: rgb(0, 0, 255); fill-opacity: 1;"/><path class="point" transform="translate(326.48,446.2)" d="M2.5,0A2.5,2.5 0 1,1 0,-2.5A2.5,2.5 0 0,1 2.5,0Z" style="opacity: 1; stroke-width: 0px; fill: rgb(0, 0, 255); fill-opacity: 1;"/><path class="point" transform="translate(409.4,561.41)" d="M2.5,0A2.5,2.5 0 1,1 0,-2.5A2.5,2.5 0 0,1 2.5,0Z" style="opacity: 1; stroke-width: 0px; fill: rgb(0, 0, 255); fill-opacity: 1;"/><path class="point" transform="translate(619.9,530.07)" d="M2.5,0A2.5,2.5 0 1,1 0,-2.5A2.5,2.5 0 0,1 2.5,0Z" style="opacity: 1; stroke-width: 0px; fill: rgb(0, 0, 255); fill-opacity: 1;"/><path class="point" transform="translate(381.51,523.4)" d="M2.5,0A2.5,2.5 0 1,1 0,-2.5A2.5,2.5 0 0,1 2.5,0Z" style="opacity: 1; stroke-width: 0px; fill: rgb(0, 0, 255); fill-opacity: 1;"/><path class="point" transform="translate(363.31,480.68)" d="M2.5,0A2.5,2.5 0 1,1 0,-2.5A2.5,2.5 0 0,1 2.5,0Z" style="opacity: 1; stroke-width: 0px; fill: rgb(0, 0, 255); fill-opacity: 1;"/><path class="point" transform="translate(515.61,505.51)" d="M2.5,0A2.5,2.5 0 1,1 0,-2.5A2.5,2.5 0 0,1 2.5,0Z" style="opacity: 1; stroke-width: 0px; fill: rgb(0, 0, 255); fill-opacity: 1;"/><path class="point" transform="translate(493.62,536.89)" d="M2.5,0A2.5,2.5 0 1,1 0,-2.5A2.5,2.5 0 0,1 2.5,0Z" style="opacity: 1; stroke-width: 0px; fill: rgb(0, 0, 255); fill-opacity: 1;"/><path class="point" transform="translate(434.81,565.21)" d="M2.5,0A2.5,2.5 0 1,1 0,-2.5A2.5,2.5 0 0,1 2.5,0Z" style="opacity: 1; stroke-width: 0px; fill: rgb(0, 0, 255); fill-opacity: 1;"/><path class="point" transform="translate(342.82,424.92)" d="M2.5,0A2.5,2.5 0 1,1 0,-2.5A2.5,2.5 0 0,1 2.5,0Z" style="opacity: 1; stroke-width: 0px; fill: rgb(0, 0, 255); fill-opacity: 1;"/><path class="point" transform="translate(470.95,448.52)" d="M2.5,0A2.5,2.5 0 1,1 0,-2.5A2.5,2.5 0 0,1 2.5,0Z" style="opacity: 1; stroke-width: 0px; fill: rgb(0, 0, 255); fill-opacity: 1;"/><path class="point" transform="translate(373.23,531.36)" d="M2.5,0A2.5,2.5 0 1,1 0,-2.5A2.5,2.5 0 0,1 2.5,0Z" style="opacity: 1; stroke-width: 0px; fill: rgb(0, 0, 255); fill-opacity: 1;"/><path class="point" transform="translate(325.34,486.6)" d="M2.5,0A2.5,2.5 0 1,1 0,-2.5A2.5,2.5 0 0,1 2.5,0Z" style="opacity: 1; stroke-width: 0px; fill: rgb(0, 0, 255); fill-opacity: 1;"/><path class="point" transform="translate(434.84,531.85)" d="M2.5,0A2.5,2.5 0 1,1 0,-2.5A2.5,2.5 0 0,1 2.5,0Z" style="opacity: 1; stroke-width: 0px; fill: rgb(0, 0, 255); fill-opacity: 1;"/><path class="point" transform="translate(352.07,498.48)" d="M2.5,0A2.5,2.5 0 1,1 0,-2.5A2.5,2.5 0 0,1 2.5,0Z" style="opacity: 1; stroke-width: 0px; fill: rgb(0, 0, 255); fill-opacity: 1;"/><path class="point" transform="translate(395.07,436.16)" d="M2.5,0A2.5,2.5 0 1,1 0,-2.5A2.5,2.5 0 0,1 2.5,0Z" style="opacity: 1; stroke-width: 0px; fill: rgb(0, 0, 255); fill-opacity: 1;"/><path class="point" transform="translate(539.61,484.38)" d="M2.5,0A2.5,2.5 0 1,1 0,-2.5A2.5,2.5 0 0,1 2.5,0Z" style="opacity: 1; stroke-width: 0px; fill: rgb(0, 0, 255); fill-opacity: 1;"/><path class="point" transform="translate(435.75,490.97)" d="M2.5,0A2.5,2.5 0 1,1 0,-2.5A2.5,2.5 0 0,1 2.5,0Z" style="opacity: 1; stroke-width: 0px; fill: rgb(0, 0, 255); fill-opacity: 1;"/><path class="point" transform="translate(373.32,263.26)" d="M2.5,0A2.5,2.5 0 1,1 0,-2.5A2.5,2.5 0 0,1 2.5,0Z" style="opacity: 1; stroke-width: 0px; fill: rgb(0, 0, 255); fill-opacity: 1;"/><path class="point" transform="translate(619.9,530.07)" d="M2.5,0A2.5,2.5 0 1,1 0,-2.5A2.5,2.5 0 0,1 2.5,0Z" style="opacity: 1; stroke-width: 0px; fill: rgb(0, 0, 255); fill-opacity: 1;"/></g><g class="text"/></g></g></g></g><path class="xlines-above crisp" d="M0,0" style="fill: none;"/><path class="ylines-above crisp" d="M0,0" style="fill: none;"/><g class="overlines-above"/><g class="xaxislayer-above"><g class="xtick"><text text-anchor="middle" x="0" y="683" transform="translate(195.69,0)" style="font-family: 'Open Sans', verdana, arial, sans-serif; font-size: 12px; fill: rgb(42, 63, 95); fill-opacity: 1; white-space: pre; opacity: 1;">−4</text></g><g class="xtick"><text text-anchor="middle" x="0" y="683" style="font-family: 'Open Sans', verdana, arial, sans-serif; font-size: 12px; fill: rgb(42, 63, 95); fill-opacity: 1; white-space: pre; opacity: 1;" transform="translate(347.84,0)">−2</text></g><g class="xtick"><text text-anchor="middle" x="0" y="683" style="font-family: 'Open Sans', verdana, arial, sans-serif; font-size: 12px; fill: rgb(42, 63, 95); fill-opacity: 1; white-space: pre; opacity: 1;" transform="translate(500,0)">0</text></g><g class="xtick"><text text-anchor="middle" x="0" y="683" style="font-family: 'Open Sans', verdana, arial, sans-serif; font-size: 12px; fill: rgb(42, 63, 95); fill-opacity: 1; white-space: pre; opacity: 1;" transform="translate(652.16,0)">2</text></g><g class="xtick"><text text-anchor="middle" x="0" y="683" style="font-family: 'Open Sans', verdana, arial, sans-serif; font-size: 12px; fill: rgb(42, 63, 95); fill-opacity: 1; white-space: pre; opacity: 1;" transform="translate(804.31,0)">4</text></g></g><g class="yaxislayer-above"><g class="ytick"><text text-anchor="end" x="79" y="4.199999999999999" transform="translate(0,670)" style="font-family: 'Open Sans', verdana, arial, sans-serif; font-size: 12px; fill: rgb(42, 63, 95); fill-opacity: 1; white-space: pre; opacity: 1;">0</text></g><g class="ytick"><text text-anchor="end" x="79" y="4.199999999999999" style="font-family: 'Open Sans', verdana, arial, sans-serif; font-size: 12px; fill: rgb(42, 63, 95); fill-opacity: 1; white-space: pre; opacity: 1;" transform="translate(0,561.03)">0.5</text></g><g class="ytick"><text text-anchor="end" x="79" y="4.199999999999999" style="font-family: 'Open Sans', verdana, arial, sans-serif; font-size: 12px; fill: rgb(42, 63, 95); fill-opacity: 1; white-space: pre; opacity: 1;" transform="translate(0,452.07)">1</text></g><g class="ytick"><text text-anchor="end" x="79" y="4.199999999999999" style="font-family: 'Open Sans', verdana, arial, sans-serif; font-size: 12px; fill: rgb(42, 63, 95); fill-opacity: 1; white-space: pre; opacity: 1;" transform="translate(0,343.1)">1.5</text></g><g class="ytick"><text text-anchor="end" x="79" y="4.199999999999999" style="font-family: 'Open Sans', verdana, arial, sans-serif; font-size: 12px; fill: rgb(42, 63, 95); fill-opacity: 1; white-space: pre; opacity: 1;" transform="translate(0,234.14)">2</text></g><g class="ytick"><text text-anchor="end" x="79" y="4.199999999999999" style="font-family: 'Open Sans', verdana, arial, sans-serif; font-size: 12px; fill: rgb(42, 63, 95); fill-opacity: 1; white-space: pre; opacity: 1;" transform="translate(0,125.17)">2.5</text></g></g><g class="overaxes-above"/></g></g><g class="polarlayer"/><g class="smithlayer"/><g class="ternarylayer"/><g class="geolayer"/><g class="funnelarealayer"/><g class="pielayer"/><g class="iciclelayer"/><g class="treemaplayer"/><g class="sunburstlayer"/><g class="glimages"/><defs id="topdefs-3f6ac8"><g class="clips"/></defs><g class="layer-above"><g class="imagelayer"/><g class="shapelayer"><g class="shape-group" data-index="0" clip-path="url(#clip3f6ac8xy)"><path data-index="0" fill-rule="evenodd" d="M80,234.14L920,234.14" style="opacity: 1; stroke: rgb(0, 0, 0); stroke-opacity: 1; fill: rgb(0, 0, 0); fill-opacity: 0; stroke-dasharray: 9px, 9px; stroke-width: 2px;"/></g><g class="shape-group" data-index="1" clip-path="url(#clip3f6ac8xy)"><path data-index="1" fill-rule="evenodd" d="M423.92,670L423.92,100" style="opacity: 1; stroke: rgb(0, 0, 0); stroke-opacity: 1; fill: rgb(0, 0, 0); fill-opacity: 0; stroke-dasharray: 9px, 9px; stroke-width: 2px;"/></g><g class="shape-group" data-index="2" clip-path="url(#clip3f6ac8xy)"><path data-index="2" fill-rule="evenodd" d="M576.0799999999999,670L576.0799999999999,100" style="opacity: 1; stroke: rgb(0, 0, 0); stroke-opacity: 1; fill: rgb(0, 0, 0); fill-opacity: 0; stroke-dasharray: 9px, 9px; stroke-width: 2px;"/></g></g></g><g class="infolayer"><g class="g-gtitle"><text class="gtitle" x="50" y="50" text-anchor="start" dy="0em" style="opacity: 1; font-family: 'Open Sans', verdana, arial, sans-serif; font-size: 17px; fill: rgb(42, 63, 95); fill-opacity: 1; white-space: pre;">Comparison 3: No Drug; No Exercise v. Half Dose and Full Dose; Exercise Volcano Plot with Thresholds</text></g><g class="g-xtitle"><text class="xtitle" x="500" y="710.3" text-anchor="middle" style="opacity: 1; font-family: 'Open Sans', verdana, arial, sans-serif; font-size: 14px; fill: rgb(42, 63, 95); fill-opacity: 1; white-space: pre;">log​<tspan style="font-size:70%" dy="0.3em">2</tspan><tspan dy="-0.21em">​</tspan>(Fold Change)</text></g><g class="g-ytitle"><text class="ytitle" transform="rotate(-90,39.975,385)" x="39.975" y="385" text-anchor="middle" style="opacity: 1; font-family: 'Open Sans', verdana, arial, sans-serif; font-size: 14px; fill: rgb(42, 63, 95); fill-opacity: 1; white-space: pre;">-log​<tspan style="font-size:70%" dy="0.3em">10</tspan><tspan dy="-0.21em">​</tspan>(<tspan style="font-style:italic">P</tspan>-value)</text></g></g></svg>